<svg width="92" height="29" viewBox="0 0 92 29" fill="none" xmlns="http://www.w3.org/2000/svg">
<path d="M0.664 28V1.915H12.689C15.5503 1.915 17.758 2.51933 19.312 3.728C20.866 4.93667 21.643 6.58933 21.643 8.686C21.643 10.24 21.1743 11.5597 20.237 12.645C19.3243 13.7303 18.0663 14.458 16.463 14.828V14.236C18.3377 14.5567 19.7807 15.272 20.792 16.382C21.828 17.4673 22.346 18.8857 22.346 20.637C22.346 22.9557 21.5197 24.7687 19.867 26.076C18.239 27.3587 15.982 28 13.096 28H0.664ZM6.177 23.708H12.393C13.8237 23.708 14.9213 23.4367 15.686 22.894C16.4507 22.3513 16.833 21.488 16.833 20.304C16.833 19.0953 16.4507 18.232 15.686 17.714C14.9213 17.1713 13.8237 16.9 12.393 16.9H6.177V23.708ZM6.177 12.645H11.653C13.1577 12.645 14.2677 12.3737 14.983 11.831C15.6983 11.2883 16.056 10.4743 16.056 9.389C16.056 8.32833 15.6983 7.52667 14.983 6.984C14.2677 6.44133 13.1577 6.17 11.653 6.17H6.177V12.645ZM26.0197 28V14.199C26.0197 13.385 25.995 12.5587 25.9457 11.72C25.921 10.8813 25.8594 10.055 25.7607 9.241H31.1257L31.7547 14.717H30.9037C31.1504 13.385 31.545 12.2873 32.0877 11.424C32.655 10.5607 33.3457 9.91933 34.1597 9.5C34.9984 9.08067 35.948 8.871 37.0087 8.871C37.4774 8.871 37.8474 8.89567 38.1187 8.945C38.39 8.96967 38.6614 9.03133 38.9327 9.13L38.8957 14.051C38.3777 13.829 37.9337 13.6933 37.5637 13.644C37.2184 13.57 36.7744 13.533 36.2317 13.533C35.1957 13.533 34.3324 13.7303 33.6417 14.125C32.9757 14.5197 32.47 15.0993 32.1247 15.864C31.804 16.6287 31.6437 17.5537 31.6437 18.639V28H26.0197ZM41.2686 28V9.241H46.8556V28H41.2686ZM41.0466 6.17V0.953H47.0406V6.17H41.0466ZM58.7849 28.407C57.1569 28.407 55.7139 28.0123 54.4559 27.223C53.2226 26.4337 52.2483 25.3113 51.5329 23.856C50.8423 22.4007 50.4969 20.6493 50.4969 18.602C50.4969 16.5793 50.8423 14.8403 51.5329 13.385C52.2236 11.9297 53.1979 10.8197 54.4559 10.055C55.7139 9.26567 57.1569 8.871 58.7849 8.871C60.2649 8.871 61.5846 9.22867 62.7439 9.944C63.9279 10.6347 64.7173 11.572 65.1119 12.756H64.6309V0.767998H70.2179V28H64.7049V24.337H65.1859C64.7913 25.5703 64.0019 26.557 62.8179 27.297C61.6339 28.037 60.2896 28.407 58.7849 28.407ZM60.4499 24.189C61.7326 24.189 62.7686 23.7327 63.5579 22.82C64.3473 21.9073 64.7419 20.5013 64.7419 18.602C64.7419 16.7027 64.3473 15.309 63.5579 14.421C62.7686 13.533 61.7326 13.089 60.4499 13.089C59.1673 13.089 58.1189 13.533 57.3049 14.421C56.5156 15.309 56.1209 16.7027 56.1209 18.602C56.1209 20.5013 56.5156 21.9073 57.3049 22.82C58.1189 23.7327 59.1673 24.189 60.4499 24.189ZM84.2349 28.407C80.9789 28.407 78.4382 27.5313 76.6129 25.78C74.7875 24.0287 73.8749 21.6483 73.8749 18.639C73.8749 16.6903 74.2572 14.9883 75.0219 13.533C75.8112 12.0777 76.8965 10.943 78.2779 10.129C79.6839 9.29033 81.3242 8.871 83.1989 8.871C85.0489 8.871 86.5905 9.26567 87.8239 10.055C89.0819 10.8443 90.0192 11.9543 90.6359 13.385C91.2772 14.791 91.5979 16.4313 91.5979 18.306V19.601H78.4629V16.826H87.5279L86.8989 17.344C86.8989 15.79 86.5782 14.6183 85.9369 13.829C85.3202 13.015 84.4199 12.608 83.2359 12.608C81.9285 12.608 80.9172 13.089 80.2019 14.051C79.5112 15.013 79.1659 16.3943 79.1659 18.195V18.787C79.1659 20.6123 79.6099 21.969 80.4979 22.857C81.4105 23.745 82.7179 24.189 84.4199 24.189C85.4312 24.189 86.3809 24.0657 87.2689 23.819C88.1815 23.5477 89.0449 23.1283 89.8589 22.561L91.4129 26.261C90.4755 26.9517 89.3902 27.482 88.1569 27.852C86.9482 28.222 85.6409 28.407 84.2349 28.407Z" fill="#1C2752" fill-opacity="0.4"/>
</svg>
