<svg width="130" height="32" viewBox="0 0 130 32" fill="none" xmlns="http://www.w3.org/2000/svg">
<path d="M0.992 2.844C1.568 2.86533 2.336 2.88667 3.296 2.908C4.256 2.92933 5.216 2.94 6.176 2.94C7.22133 2.94 8.224 2.92933 9.184 2.908C10.1653 2.88667 10.8587 2.876 11.264 2.876C14.0373 2.876 16.1067 3.34533 17.472 4.284C18.8587 5.22267 19.552 6.428 19.552 7.9C19.552 8.64667 19.3067 9.41467 18.816 10.204C18.3253 10.972 17.568 11.6653 16.544 12.284C15.5413 12.8813 14.2507 13.2973 12.672 13.532V13.596C14.7627 13.724 16.4267 14.0867 17.664 14.684C18.9227 15.26 19.8293 15.9533 20.384 16.764C20.9387 17.5747 21.216 18.4173 21.216 19.292C21.216 20.6787 20.8427 21.8307 20.096 22.748C19.3707 23.6653 18.3147 24.3587 16.928 24.828C15.5627 25.276 13.92 25.5 12 25.5C11.488 25.5 10.7413 25.4893 9.76 25.468C8.77867 25.4253 7.60533 25.404 6.24 25.404C5.23733 25.404 4.256 25.4147 3.296 25.436C2.336 25.436 1.568 25.4573 0.992 25.5V24.86C1.65333 24.8173 2.144 24.732 2.464 24.604C2.80533 24.476 3.02933 24.22 3.136 23.836C3.264 23.452 3.328 22.876 3.328 22.108V6.236C3.328 5.44666 3.264 4.87067 3.136 4.508C3.02933 4.124 2.80533 3.868 2.464 3.74C2.144 3.59067 1.65333 3.50533 0.992 3.484V2.844ZM10.976 3.484C10.208 3.484 9.70667 3.66533 9.472 4.028C9.23733 4.39067 9.12 5.12667 9.12 6.236V22.108C9.12 22.8547 9.17333 23.42 9.28 23.804C9.408 24.188 9.62133 24.444 9.92 24.572C10.2187 24.7 10.6667 24.764 11.264 24.764C12.6293 24.764 13.6213 24.284 14.24 23.324C14.88 22.3427 15.2 20.956 15.2 19.164C15.2 17.5213 14.7947 16.252 13.984 15.356C13.1947 14.46 11.872 14.012 10.016 14.012H7.488C7.488 14.012 7.488 13.9267 7.488 13.756C7.488 13.564 7.488 13.468 7.488 13.468H10.24C11.1573 13.468 11.8613 13.2333 12.352 12.764C12.8427 12.2733 13.184 11.6333 13.376 10.844C13.568 10.0333 13.664 9.16933 13.664 8.252C13.664 6.67333 13.4507 5.48933 13.024 4.7C12.6187 3.88933 11.936 3.484 10.976 3.484ZM39.1513 8.572V22.012C39.1513 22.972 39.2899 23.6867 39.5673 24.156C39.8659 24.604 40.3673 24.828 41.0713 24.828V25.5C40.4099 25.436 39.7486 25.404 39.0873 25.404C38.1059 25.404 37.1886 25.436 36.3353 25.5C35.5033 25.564 34.7139 25.6813 33.9673 25.852V23.26C33.4553 24.22 32.7513 24.9133 31.8553 25.34C30.9806 25.7453 29.9779 25.948 28.8473 25.948C27.9086 25.948 27.1513 25.8307 26.5753 25.596C26.0206 25.3613 25.5939 25.052 25.2953 24.668C24.9539 24.284 24.7086 23.772 24.5593 23.132C24.4099 22.4707 24.3353 21.6067 24.3353 20.54V12.412C24.3353 11.452 24.1966 10.748 23.9193 10.3C23.6419 9.83067 23.1406 9.596 22.4153 9.596V8.924C23.0979 8.988 23.7593 9.02 24.3993 9.02C25.3806 9.02 26.2979 8.988 27.1513 8.924C28.0046 8.83867 28.7939 8.72133 29.5193 8.572V22.076C29.5193 22.5667 29.5726 22.9827 29.6793 23.324C29.7859 23.6653 29.9673 23.932 30.2233 24.124C30.4793 24.316 30.8206 24.412 31.2473 24.412C31.7379 24.412 32.1859 24.284 32.5913 24.028C32.9966 23.772 33.3273 23.42 33.5833 22.972C33.8393 22.5027 33.9673 21.98 33.9673 21.404V12.412C33.9673 11.452 33.8286 10.748 33.5513 10.3C33.2739 9.83067 32.7726 9.596 32.0473 9.596V8.924C32.7299 8.988 33.3913 9.02 34.0313 9.02C35.0126 9.02 35.9299 8.988 36.7833 8.924C37.6366 8.83867 38.4259 8.72133 39.1513 8.572ZM46.7115 0.571999C47.7142 0.571999 48.4928 0.795999 49.0475 1.244C49.6235 1.692 49.9115 2.34267 49.9115 3.196C49.9115 4.04933 49.6235 4.7 49.0475 5.148C48.4928 5.596 47.7142 5.82 46.7115 5.82C45.7088 5.82 44.9195 5.596 44.3435 5.148C43.7888 4.7 43.5115 4.04933 43.5115 3.196C43.5115 2.34267 43.7888 1.692 44.3435 1.244C44.9195 0.795999 45.7088 0.571999 46.7115 0.571999ZM49.5275 8.572V22.524C49.5275 23.42 49.6662 24.028 49.9435 24.348C50.2422 24.668 50.7435 24.828 51.4475 24.828V25.5C51.0208 25.4787 50.3915 25.4573 49.5595 25.436C48.7275 25.3933 47.8848 25.372 47.0315 25.372C46.1782 25.372 45.3035 25.3933 44.4075 25.436C43.5328 25.4573 42.8715 25.4787 42.4235 25.5V24.828C43.1275 24.828 43.6182 24.668 43.8955 24.348C44.1942 24.028 44.3435 23.42 44.3435 22.524V12.412C44.3435 11.452 44.2048 10.748 43.9275 10.3C43.6502 9.83067 43.1488 9.596 42.4235 9.596V8.924C43.1062 8.988 43.7675 9.02 44.4075 9.02C45.3675 9.02 46.2742 8.988 47.1275 8.924C48.0022 8.83867 48.8022 8.72133 49.5275 8.572ZM59.7433 0.475998V22.524C59.7433 23.42 59.8819 24.028 60.1593 24.348C60.4579 24.668 60.9593 24.828 61.6633 24.828V25.5C61.2579 25.4787 60.6393 25.4573 59.8073 25.436C58.9753 25.3933 58.1219 25.372 57.2473 25.372C56.3939 25.372 55.5193 25.3933 54.6233 25.436C53.7486 25.4573 53.0873 25.4787 52.6393 25.5V24.828C53.3433 24.828 53.8339 24.668 54.1113 24.348C54.4099 24.028 54.5593 23.42 54.5593 22.524V4.284C54.5593 3.34533 54.4206 2.652 54.1432 2.204C53.8873 1.73466 53.3859 1.5 52.6393 1.5V0.827999C53.3219 0.892 53.9833 0.924 54.6233 0.924C55.6046 0.924 56.5219 0.892 57.3753 0.827999C58.2286 0.742666 59.0179 0.625332 59.7433 0.475998ZM78.8008 0.475998V21.98C78.8008 22.94 78.9394 23.6547 79.2168 24.124C79.5154 24.572 80.0168 24.796 80.7208 24.796V25.468C80.0594 25.404 79.3981 25.372 78.7368 25.372C77.7768 25.372 76.8701 25.404 76.0168 25.468C75.1634 25.532 74.3634 25.6493 73.6168 25.82V4.316C73.6168 3.356 73.4781 2.652 73.2008 2.204C72.9448 1.73466 72.4434 1.5 71.6968 1.5V0.827999C72.3794 0.892 73.0408 0.924 73.6808 0.924C74.6621 0.924 75.5794 0.892 76.4328 0.827999C77.2861 0.742666 78.0754 0.625332 78.8008 0.475998ZM70.1927 8.476C71.1314 8.476 71.9421 8.61467 72.6248 8.892C73.3074 9.148 73.8728 9.58533 74.3208 10.204L73.9368 10.524C73.6594 10.1613 73.3181 9.89467 72.9128 9.724C72.5288 9.55333 72.1234 9.468 71.6968 9.468C70.6728 9.468 69.8728 10.108 69.2968 11.388C68.7421 12.6467 68.4648 14.588 68.4648 17.212C68.4648 19.0467 68.5714 20.4973 68.7848 21.564C69.0194 22.6093 69.3288 23.3453 69.7128 23.772C70.1181 24.1987 70.5661 24.412 71.0568 24.412C71.7181 24.412 72.3048 24.1667 72.8168 23.676C73.3501 23.164 73.6274 22.492 73.6488 21.66L73.7448 23.004C73.3608 23.9853 72.8274 24.7213 72.1448 25.212C71.4834 25.7027 70.6301 25.948 69.5848 25.948C68.3474 25.948 67.2274 25.6387 66.2248 25.02C65.2434 24.4013 64.4648 23.452 63.8888 22.172C63.3341 20.8707 63.0568 19.1853 63.0568 17.116C63.0568 15.1747 63.3554 13.5747 63.9528 12.316C64.5714 11.036 65.4141 10.076 66.4808 9.436C67.5688 8.796 68.8061 8.476 70.1927 8.476ZM86.274 0.571999C87.2767 0.571999 88.0553 0.795999 88.61 1.244C89.186 1.692 89.474 2.34267 89.474 3.196C89.474 4.04933 89.186 4.7 88.61 5.148C88.0553 5.596 87.2767 5.82 86.274 5.82C85.2713 5.82 84.482 5.596 83.906 5.148C83.3513 4.7 83.074 4.04933 83.074 3.196C83.074 2.34267 83.3513 1.692 83.906 1.244C84.482 0.795999 85.2713 0.571999 86.274 0.571999ZM89.09 8.572V22.524C89.09 23.42 89.2287 24.028 89.506 24.348C89.8047 24.668 90.306 24.828 91.01 24.828V25.5C90.5833 25.4787 89.954 25.4573 89.122 25.436C88.29 25.3933 87.4473 25.372 86.594 25.372C85.7407 25.372 84.866 25.3933 83.97 25.436C83.0953 25.4573 82.434 25.4787 81.986 25.5V24.828C82.69 24.828 83.1807 24.668 83.458 24.348C83.7567 24.028 83.906 23.42 83.906 22.524V12.412C83.906 11.452 83.7673 10.748 83.49 10.3C83.2127 9.83067 82.7113 9.596 81.986 9.596V8.924C82.6687 8.988 83.33 9.02 83.97 9.02C84.93 9.02 85.8367 8.988 86.69 8.924C87.5647 8.83867 88.3647 8.72133 89.09 8.572ZM104.586 8.476C105.524 8.476 106.271 8.59333 106.826 8.828C107.402 9.06267 107.839 9.36133 108.138 9.724C108.479 10.1293 108.724 10.652 108.874 11.292C109.044 11.932 109.13 12.796 109.13 13.884V22.524C109.13 23.42 109.268 24.028 109.546 24.348C109.844 24.668 110.346 24.828 111.05 24.828V25.5C110.623 25.4787 109.983 25.4573 109.13 25.436C108.298 25.3933 107.487 25.372 106.698 25.372C105.823 25.372 104.98 25.3933 104.17 25.436C103.359 25.4573 102.751 25.4787 102.346 25.5V24.828C102.943 24.828 103.359 24.668 103.594 24.348C103.828 24.028 103.946 23.42 103.946 22.524V12.348C103.946 11.8573 103.892 11.4413 103.786 11.1C103.679 10.7373 103.498 10.4707 103.242 10.3C102.986 10.108 102.623 10.012 102.154 10.012C101.663 10.012 101.204 10.14 100.778 10.396C100.372 10.652 100.042 11.0147 99.7858 11.484C99.5511 11.932 99.4338 12.444 99.4338 13.02V22.524C99.4338 23.42 99.5511 24.028 99.7858 24.348C100.02 24.668 100.436 24.828 101.034 24.828V25.5C100.628 25.4787 100.042 25.4573 99.2738 25.436C98.5058 25.3933 97.7271 25.372 96.9378 25.372C96.0631 25.372 95.1884 25.3933 94.3138 25.436C93.4391 25.4573 92.7778 25.4787 92.3298 25.5V24.828C93.0338 24.828 93.5244 24.668 93.8018 24.348C94.1004 24.028 94.2498 23.42 94.2498 22.524V12.412C94.2498 11.452 94.1111 10.748 93.8338 10.3C93.5564 9.83067 93.0551 9.596 92.3298 9.596V8.924C93.0124 8.988 93.6738 9.02 94.3138 9.02C95.2738 9.02 96.1804 8.988 97.0338 8.924C97.9084 8.83867 98.7084 8.72133 99.4338 8.572V11.164C99.9458 10.1827 100.639 9.48933 101.514 9.084C102.41 8.67867 103.434 8.476 104.586 8.476ZM118.227 31.516C116.84 31.516 115.624 31.3987 114.579 31.164C113.533 30.9507 112.723 30.62 112.147 30.172C111.571 29.7453 111.283 29.2227 111.283 28.604C111.283 27.964 111.581 27.3773 112.179 26.844C112.776 26.332 113.693 25.9267 114.931 25.628L115.219 26.14C114.856 26.5027 114.6 26.8547 114.451 27.196C114.301 27.5587 114.227 27.9107 114.227 28.252C114.227 29.1267 114.621 29.7987 115.411 30.268C116.2 30.7373 117.288 30.972 118.675 30.972C119.635 30.972 120.467 30.8333 121.171 30.556C121.875 30.3 122.419 29.9267 122.803 29.436C123.187 28.9453 123.379 28.3693 123.379 27.708C123.379 27.0893 123.144 26.5667 122.675 26.14C122.227 25.7133 121.309 25.5 119.923 25.5H118.067C117.149 25.5 116.36 25.3827 115.699 25.148C115.037 24.9133 114.525 24.5827 114.163 24.156C113.821 23.7293 113.651 23.196 113.651 22.556C113.651 21.596 114.024 20.7853 114.771 20.124C115.517 19.4413 116.552 18.812 117.875 18.236L118.163 18.492C117.843 18.684 117.533 18.908 117.235 19.164C116.957 19.42 116.819 19.7613 116.819 20.188C116.819 20.8707 117.224 21.212 118.035 21.212H121.331C122.611 21.212 123.741 21.3613 124.723 21.66C125.704 21.9373 126.472 22.4067 127.027 23.068C127.603 23.708 127.891 24.5507 127.891 25.596C127.891 26.6627 127.549 27.644 126.867 28.54C126.184 29.436 125.128 30.1507 123.699 30.684C122.291 31.2387 120.467 31.516 118.227 31.516ZM118.643 18.684C117.363 18.684 116.221 18.5027 115.219 18.14C114.237 17.7773 113.459 17.2227 112.883 16.476C112.307 15.708 112.019 14.7373 112.019 13.564C112.019 12.3907 112.307 11.4307 112.883 10.684C113.459 9.93733 114.237 9.38267 115.219 9.02C116.221 8.65733 117.363 8.476 118.643 8.476C119.901 8.476 121.032 8.65733 122.035 9.02C123.037 9.38267 123.827 9.93733 124.403 10.684C124.979 11.4307 125.267 12.3907 125.267 13.564C125.267 14.7373 124.979 15.708 124.403 16.476C123.827 17.2227 123.037 17.7773 122.035 18.14C121.032 18.5027 119.901 18.684 118.643 18.684ZM118.643 18.108C119.112 18.108 119.485 17.7773 119.763 17.116C120.061 16.4547 120.211 15.2707 120.211 13.564C120.211 11.8573 120.061 10.684 119.763 10.044C119.485 9.38267 119.112 9.052 118.643 9.052C118.152 9.052 117.768 9.38267 117.491 10.044C117.213 10.684 117.075 11.8573 117.075 13.564C117.075 15.2707 117.213 16.4547 117.491 17.116C117.768 17.7773 118.152 18.108 118.643 18.108ZM123.731 11.26L123.059 11.036C123.4 10.1613 123.923 9.45733 124.627 8.924C125.352 8.36933 126.141 8.092 126.995 8.092C127.699 8.092 128.221 8.284 128.563 8.668C128.925 9.052 129.107 9.55333 129.107 10.172C129.107 10.7907 128.936 11.2707 128.595 11.612C128.275 11.932 127.891 12.092 127.443 12.092C127.059 12.092 126.707 11.964 126.387 11.708C126.067 11.4307 125.885 11.0253 125.843 10.492C125.8 9.93733 125.992 9.244 126.419 8.412L126.611 8.604C125.821 8.88133 125.213 9.22267 124.787 9.628C124.381 10.0333 124.029 10.5773 123.731 11.26Z" fill="#1C2752" fill-opacity="0.4"/>
</svg>
