<svg width="117" height="35" viewBox="0 0 117 35" fill="none" xmlns="http://www.w3.org/2000/svg">
<path d="M9.47949 10.2896V2.25049H7.39795C6.53662 2.25049 5.79492 2.32227 5.17285 2.46582C4.55078 2.59342 4.04036 2.83268 3.6416 3.18359C3.24284 3.51855 2.94775 3.98112 2.75635 4.57129C2.56494 5.16146 2.46924 5.90316 2.46924 6.79639V28.186C2.46924 28.856 2.53304 29.478 2.66064 30.0522C2.8042 30.6105 3.01953 31.105 3.30664 31.5356C3.6097 31.9504 3.99251 32.2773 4.45508 32.5166C4.93359 32.7559 5.50781 32.8755 6.17773 32.8755C7.27832 32.8755 8.09977 32.5565 8.64209 31.9185C9.20036 31.2804 9.47949 30.3633 9.47949 29.167V24.8364H11.2739V29.1909C11.2739 30.8338 10.8512 32.1258 10.0059 33.0669C9.16048 34.008 7.90039 34.4785 6.22559 34.4785C5.2207 34.4785 4.35938 34.311 3.6416 33.9761C2.93978 33.6411 2.36556 33.1945 1.91895 32.6362C1.48828 32.062 1.16927 31.3921 0.961914 30.6265C0.770508 29.8608 0.674805 29.0474 0.674805 28.186V7.60986C0.674805 7.0835 0.68278 6.54915 0.69873 6.00684C0.714681 5.44857 0.778483 4.91423 0.890137 4.40381C1.01774 3.87744 1.20117 3.39095 1.44043 2.94434C1.69564 2.48177 2.04655 2.08301 2.49316 1.74805C2.95573 1.41309 3.53792 1.1499 4.23975 0.958496C4.95752 0.751139 5.82682 0.647461 6.84766 0.647461H11.2739V10.2896H9.47949ZM22.0884 29.6455C22.0884 30.3473 22.0007 30.9933 21.8252 31.5835C21.6497 32.1737 21.3866 32.6841 21.0356 33.1147C20.6847 33.5454 20.2461 33.8804 19.7197 34.1196C19.2093 34.3589 18.6112 34.4785 17.9253 34.4785C17.2394 34.4785 16.6333 34.3669 16.1069 34.1436C15.5965 33.9362 15.1659 33.6411 14.8149 33.2583C14.48 32.8595 14.2248 32.397 14.0493 31.8706C13.8739 31.3283 13.7861 30.7381 13.7861 30.1001V13.5195C13.7861 12.8975 13.8739 12.3232 14.0493 11.7969C14.2248 11.2546 14.488 10.792 14.8389 10.4092C15.1898 10.0104 15.6204 9.70736 16.1309 9.5C16.6572 9.27669 17.2633 9.16504 17.9492 9.16504H22.0884V29.6455ZM15.5806 30.2437C15.5806 30.9774 15.7799 31.5994 16.1787 32.1099C16.5934 32.6203 17.1836 32.8755 17.9492 32.8755C18.6989 32.8755 19.2731 32.5884 19.6719 32.0142C20.0866 31.424 20.2939 30.7142 20.2939 29.8848V10.7681H17.9492C17.1836 10.7681 16.5934 11.0233 16.1787 11.5337C15.7799 12.0441 15.5806 12.6662 15.5806 13.3999V30.2437ZM33.6206 34H31.8262V13.8784C31.8262 13.1447 31.6188 12.5226 31.2041 12.0122C30.8053 11.5018 30.2311 11.2466 29.4814 11.2466H27.1128V34H25.3184V9.64355H29.4814C30.1514 9.64355 30.7415 9.75521 31.252 9.97852C31.7783 10.1859 32.217 10.4889 32.5679 10.8877C32.9188 11.2705 33.182 11.7331 33.3574 12.2754C33.5329 12.8018 33.6206 13.376 33.6206 13.998V34ZM36.1328 28.4731H37.9272V30.2676C37.9272 31.0013 38.1266 31.6234 38.5254 32.1338C38.9401 32.6283 39.5303 32.8755 40.2959 32.8755C41.0456 32.8755 41.6198 32.6283 42.0186 32.1338C42.4333 31.6234 42.6406 31.0013 42.6406 30.2676V27.2529C42.6406 26.7266 42.5529 26.2401 42.3774 25.7935C42.2179 25.3309 41.9946 24.8923 41.7075 24.4775C41.4364 24.0469 41.1174 23.6401 40.7505 23.2573C40.3996 22.8745 40.0407 22.4917 39.6738 22.1089C39.2272 21.6623 38.7886 21.2077 38.3579 20.7451C37.9432 20.2826 37.5684 19.7961 37.2334 19.2856C36.8984 18.7593 36.6273 18.209 36.4199 17.6348C36.2285 17.0605 36.1328 16.4385 36.1328 15.7686V13.5435C36.1328 12.9054 36.2205 12.3232 36.396 11.7969C36.5715 11.2546 36.8346 10.792 37.1855 10.4092C37.5365 10.0104 37.9671 9.70736 38.4775 9.5C39.0039 9.27669 39.61 9.16504 40.2959 9.16504C40.9658 9.16504 41.556 9.27669 42.0664 9.5C42.5928 9.70736 43.0314 10.0104 43.3823 10.4092C43.7332 10.792 43.9964 11.2546 44.1719 11.7969C44.3473 12.3232 44.4351 12.9054 44.4351 13.5435V15.5054H42.6406V13.3999C42.6406 12.6662 42.4333 12.0441 42.0186 11.5337C41.6198 11.0233 41.0456 10.7681 40.2959 10.7681C39.5303 10.7681 38.9401 11.0233 38.5254 11.5337C38.1266 12.0441 37.9272 12.6662 37.9272 13.3999V15.7686C37.9272 16.3109 38.015 16.8213 38.1904 17.2998C38.3659 17.7624 38.5892 18.201 38.8604 18.6157C39.1475 19.0304 39.4665 19.4372 39.8174 19.8359C40.1842 20.2188 40.5511 20.6016 40.918 20.9844C41.3646 21.4469 41.7952 21.9095 42.21 22.3721C42.6406 22.8346 43.0155 23.3211 43.3345 23.8315C43.6694 24.342 43.9326 24.8843 44.124 25.4585C44.3314 26.0168 44.4351 26.6149 44.4351 27.2529V30.1001C44.4351 30.7222 44.3473 31.3044 44.1719 31.8467C43.9964 32.373 43.7332 32.8356 43.3823 33.2344C43.0314 33.6172 42.5928 33.9202 42.0664 34.1436C41.556 34.3669 40.9658 34.4785 40.2959 34.4785C39.61 34.4785 39.0039 34.3669 38.4775 34.1436C37.9671 33.9202 37.5365 33.6172 37.1855 33.2344C36.8346 32.8356 36.5715 32.373 36.396 31.8467C36.2205 31.3044 36.1328 30.7222 36.1328 30.1001V28.4731ZM47.4019 11.2466H45.416V9.64355H47.4019V6.62891H49.1963V9.64355H52.4741V11.2466H49.1963V30.2437C49.1963 30.9774 49.3957 31.5994 49.7944 32.1099C50.1932 32.6043 50.7754 32.8516 51.541 32.8516H52.3306V34.4785H51.541C50.8551 34.4785 50.249 34.3669 49.7227 34.1436C49.2122 33.9202 48.7816 33.6172 48.4307 33.2344C48.0957 32.8356 47.8405 32.373 47.665 31.8467C47.4896 31.3044 47.4019 30.7222 47.4019 30.1001V11.2466ZM59.5322 11.103C59.293 11.0392 59.0059 11.0073 58.6709 11.0073C57.9053 11.0073 57.3151 11.2625 56.9004 11.7729C56.5016 12.2834 56.3022 12.9054 56.3022 13.6392V34H54.5078V13.7827C54.5078 13.1447 54.5955 12.5625 54.771 12.0361C54.9465 11.4938 55.2096 11.0312 55.5605 10.6484C55.9115 10.2497 56.3421 9.94661 56.8525 9.73926C57.3789 9.51595 57.985 9.4043 58.6709 9.4043C58.958 9.4043 59.2371 9.42822 59.5083 9.47607C59.7795 9.50798 60.0267 9.5638 60.25 9.64355L59.5322 11.103ZM69.9399 9.64355V29.6455C69.9399 30.3473 69.8522 30.9933 69.6768 31.5835C69.5013 32.1737 69.2381 32.6841 68.8872 33.1147C68.5363 33.5454 68.0977 33.8804 67.5713 34.1196C67.0609 34.3589 66.4627 34.4785 65.7769 34.4785C65.091 34.4785 64.4849 34.3669 63.9585 34.1436C63.4481 33.9362 63.0174 33.6411 62.6665 33.2583C62.3315 32.8595 62.0763 32.397 61.9009 31.8706C61.7254 31.3283 61.6377 30.7381 61.6377 30.1001V9.64355H63.4321V30.2437C63.4321 30.9774 63.6315 31.5994 64.0303 32.1099C64.445 32.6203 65.0352 32.8755 65.8008 32.8755C66.5505 32.8755 67.1247 32.5884 67.5234 32.0142C67.9382 31.424 68.1455 30.7142 68.1455 29.8848V9.64355H69.9399ZM74.7251 30.1719C74.7251 30.9056 74.9325 31.5277 75.3472 32.0381C75.7619 32.5485 76.3521 32.8037 77.1177 32.8037C77.8674 32.8037 78.4416 32.5166 78.8403 31.9424C79.255 31.3522 79.4624 30.6424 79.4624 29.813L81.2329 29.5737C81.2329 30.2756 81.1452 30.9215 80.9697 31.5117C80.7943 32.1019 80.5311 32.6123 80.1802 33.043C79.8293 33.4736 79.3906 33.8086 78.8643 34.0479C78.3538 34.2871 77.7557 34.4067 77.0698 34.4067C76.384 34.4067 75.7778 34.2951 75.2515 34.0718C74.741 33.8644 74.3104 33.5693 73.9595 33.1865C73.6245 32.7878 73.3693 32.3252 73.1938 31.7988C73.0184 31.2565 72.9307 30.6663 72.9307 30.0283V13.998C72.9307 13.376 73.0184 12.8018 73.1938 12.2754C73.3693 11.7331 73.6325 11.2705 73.9834 10.8877C74.3343 10.4889 74.765 10.1859 75.2754 9.97852C75.8018 9.75521 76.4079 9.64355 77.0938 9.64355H81.2329V16.4385H79.4385V11.2466H77.0938C76.3281 11.2466 75.738 11.5018 75.3232 12.0122C74.9245 12.5226 74.7251 13.1447 74.7251 13.8784V30.1719ZM84.1997 11.2466H82.2139V9.64355H84.1997V6.62891H85.9941V9.64355H89.272V11.2466H85.9941V30.2437C85.9941 30.9774 86.1935 31.5994 86.5923 32.1099C86.991 32.6043 87.5732 32.8516 88.3389 32.8516H89.1284V34.4785H88.3389C87.653 34.4785 87.0469 34.3669 86.5205 34.1436C86.0101 33.9202 85.5794 33.6172 85.2285 33.2344C84.8936 32.8356 84.6383 32.373 84.4629 31.8467C84.2874 31.3044 84.1997 30.7222 84.1997 30.1001V11.2466ZM91.5449 34V9.64355H93.3394V34H91.5449ZM91.3057 1.38916C91.3057 0.591634 91.6885 0.192871 92.4541 0.192871C92.821 0.192871 93.1081 0.296549 93.3154 0.503906C93.5387 0.695312 93.6504 0.990397 93.6504 1.38916C93.6504 1.69222 93.5467 1.9554 93.3394 2.17871C93.1479 2.40202 92.8529 2.51367 92.4541 2.51367C92.0872 2.51367 91.8001 2.40202 91.5928 2.17871C91.4014 1.9554 91.3057 1.69222 91.3057 1.38916ZM105.063 29.6455C105.063 30.3473 104.975 30.9933 104.8 31.5835C104.624 32.1737 104.361 32.6841 104.01 33.1147C103.659 33.5454 103.221 33.8804 102.694 34.1196C102.184 34.3589 101.586 34.4785 100.9 34.4785C100.214 34.4785 99.6079 34.3669 99.0815 34.1436C98.5711 33.9362 98.1405 33.6411 97.7896 33.2583C97.4546 32.8595 97.1994 32.397 97.0239 31.8706C96.8485 31.3283 96.7607 30.7381 96.7607 30.1001V13.5195C96.7607 12.8975 96.8485 12.3232 97.0239 11.7969C97.1994 11.2546 97.4626 10.792 97.8135 10.4092C98.1644 10.0104 98.5951 9.70736 99.1055 9.5C99.6318 9.27669 100.238 9.16504 100.924 9.16504H105.063V29.6455ZM98.5552 30.2437C98.5552 30.9774 98.7546 31.5994 99.1533 32.1099C99.568 32.6203 100.158 32.8755 100.924 32.8755C101.674 32.8755 102.248 32.5884 102.646 32.0142C103.061 31.424 103.269 30.7142 103.269 29.8848V10.7681H100.924C100.158 10.7681 99.568 11.0233 99.1533 11.5337C98.7546 12.0441 98.5552 12.6662 98.5552 13.3999V30.2437ZM116.595 34H114.801V13.8784C114.801 13.1447 114.593 12.5226 114.179 12.0122C113.78 11.5018 113.206 11.2466 112.456 11.2466H110.087V34H108.293V9.64355H112.456C113.126 9.64355 113.716 9.75521 114.227 9.97852C114.753 10.1859 115.192 10.4889 115.542 10.8877C115.893 11.2705 116.157 11.7331 116.332 12.2754C116.507 12.8018 116.595 13.376 116.595 13.998V34Z" fill="#1C2752" fill-opacity="0.4"/>
</svg>
