<svg width="155" height="34" viewBox="0 0 155 34" fill="none" xmlns="http://www.w3.org/2000/svg">
<path d="M20.932 24.52C20.524 24.784 19.936 25.108 19.168 25.492C18.424 25.852 17.536 26.164 16.504 26.428C15.496 26.692 14.392 26.812 13.192 26.788C11.152 26.764 9.328 26.404 7.72 25.708C6.112 25.012 4.732 24.064 3.58 22.864C2.452 21.64 1.588 20.248 0.988 18.688C0.388 17.104 0.0880001 15.424 0.0880001 13.648C0.0880001 11.68 0.4 9.88 1.024 8.248C1.672 6.592 2.572 5.164 3.724 3.964C4.876 2.74 6.232 1.792 7.792 1.12C9.376 0.447999 11.104 0.111999 12.976 0.111999C14.56 0.111999 16 0.327999 17.296 0.759999C18.592 1.192 19.684 1.684 20.572 2.236L19.06 5.764C18.364 5.284 17.5 4.828 16.468 4.396C15.46 3.964 14.332 3.748 13.084 3.748C11.452 3.748 9.94 4.18 8.548 5.044C7.18 5.908 6.076 7.072 5.236 8.536C4.42 10 4.012 11.644 4.012 13.468C4.012 15.316 4.384 16.972 5.128 18.436C5.896 19.9 6.976 21.052 8.368 21.892C9.76 22.732 11.392 23.152 13.264 23.152C14.608 23.152 15.784 22.948 16.792 22.54C17.824 22.132 18.664 21.664 19.312 21.136L20.932 24.52ZM34.8401 26.86C33.7361 26.86 32.6681 26.62 31.6361 26.14C30.6281 25.636 29.8361 24.952 29.2601 24.088L29.4761 22.972V33.736H25.8401V11.2H28.9721L29.4761 14.908L29.1161 13.864C29.8361 12.976 30.7361 12.256 31.8161 11.704C32.9201 11.128 34.1561 10.84 35.5241 10.84C36.9401 10.84 38.2121 11.176 39.3401 11.848C40.4681 12.52 41.3561 13.468 42.0041 14.692C42.6521 15.892 42.9761 17.308 42.9761 18.94C42.9761 20.572 42.6161 21.988 41.8961 23.188C41.2001 24.364 40.2401 25.276 39.0161 25.924C37.7921 26.548 36.4001 26.86 34.8401 26.86ZM34.1201 23.98C35.0561 23.98 35.9081 23.764 36.6761 23.332C37.4681 22.9 38.0921 22.312 38.5481 21.568C39.0281 20.8 39.2681 19.936 39.2681 18.976C39.2681 17.992 39.0521 17.116 38.6201 16.348C38.1881 15.58 37.6001 14.98 36.8561 14.548C36.1121 14.116 35.2841 13.9 34.3721 13.9C33.1241 13.9 32.0681 14.236 31.2041 14.908C30.3641 15.58 29.7881 16.468 29.4761 17.572V20.272C29.6681 21.352 30.1961 22.24 31.0601 22.936C31.9241 23.632 32.9441 23.98 34.1201 23.98ZM50.6317 11.452L50.9557 14.728L50.7757 14.44C51.3277 13.312 52.1077 12.436 53.1157 11.812C54.1477 11.164 55.3237 10.84 56.6437 10.84C57.8917 10.84 58.9357 11.128 59.7757 11.704C60.6157 12.28 61.1317 13.096 61.3237 14.152L61.1437 14.296C61.7437 13.216 62.5477 12.376 63.5557 11.776C64.5637 11.152 65.6197 10.84 66.7237 10.84C68.2117 10.84 69.3877 11.26 70.2517 12.1C71.1157 12.916 71.5597 13.996 71.5837 15.34V26.5H67.9837V16.708C67.9597 15.94 67.7797 15.304 67.4437 14.8C67.1317 14.296 66.5557 14.02 65.7157 13.972C64.8517 13.972 64.0837 14.236 63.4117 14.764C62.7637 15.292 62.2477 15.976 61.8637 16.816C61.5037 17.656 61.3117 18.556 61.2877 19.516V26.5H57.6517V16.708C57.6277 15.94 57.4357 15.304 57.0757 14.8C56.7397 14.296 56.1517 14.02 55.3117 13.972C54.4717 13.972 53.7157 14.236 53.0437 14.764C52.3957 15.292 51.8917 15.988 51.5317 16.852C51.1717 17.692 50.9917 18.592 50.9917 19.552V26.5H47.3557V11.452H50.6317ZM86.2737 26.86C85.1697 26.86 84.1017 26.62 83.0697 26.14C82.0617 25.636 81.2697 24.952 80.6937 24.088L80.9097 22.972V33.736H77.2737V11.2H80.4057L80.9097 14.908L80.5497 13.864C81.2697 12.976 82.1697 12.256 83.2497 11.704C84.3537 11.128 85.5897 10.84 86.9577 10.84C88.3737 10.84 89.6457 11.176 90.7737 11.848C91.9017 12.52 92.7897 13.468 93.4377 14.692C94.0857 15.892 94.4097 17.308 94.4097 18.94C94.4097 20.572 94.0497 21.988 93.3297 23.188C92.6337 24.364 91.6737 25.276 90.4497 25.924C89.2257 26.548 87.8337 26.86 86.2737 26.86ZM85.5537 23.98C86.4897 23.98 87.3417 23.764 88.1097 23.332C88.9017 22.9 89.5257 22.312 89.9817 21.568C90.4617 20.8 90.7017 19.936 90.7017 18.976C90.7017 17.992 90.4857 17.116 90.0537 16.348C89.6217 15.58 89.0337 14.98 88.2897 14.548C87.5457 14.116 86.7177 13.9 85.8057 13.9C84.5577 13.9 83.5017 14.236 82.6377 14.908C81.7977 15.58 81.2217 16.468 80.9097 17.572V20.272C81.1017 21.352 81.6297 22.24 82.4937 22.936C83.3577 23.632 84.3777 23.98 85.5537 23.98ZM105.089 26.86C103.673 26.86 102.389 26.56 101.237 25.96C100.085 25.36 99.1733 24.484 98.5013 23.332C97.8293 22.156 97.4933 20.704 97.4933 18.976C97.4933 17.296 97.8413 15.856 98.5373 14.656C99.2573 13.432 100.193 12.496 101.345 11.848C102.521 11.176 103.793 10.84 105.161 10.84C106.601 10.84 107.789 11.14 108.725 11.74C109.661 12.34 110.381 13.06 110.885 13.9L110.669 14.476L111.029 11.452H114.377V26.5H110.741V22.684L111.101 23.584C111.005 23.776 110.801 24.052 110.489 24.412C110.177 24.772 109.769 25.144 109.265 25.528C108.761 25.888 108.149 26.2 107.429 26.464C106.733 26.728 105.953 26.86 105.089 26.86ZM106.061 23.872C107.261 23.872 108.269 23.56 109.085 22.936C109.925 22.288 110.477 21.412 110.741 20.308V17.212C110.453 16.228 109.865 15.412 108.977 14.764C108.113 14.116 107.105 13.792 105.953 13.792C105.089 13.792 104.297 14.008 103.577 14.44C102.857 14.848 102.281 15.436 101.849 16.204C101.417 16.948 101.201 17.812 101.201 18.796C101.201 19.756 101.417 20.62 101.849 21.388C102.305 22.156 102.905 22.768 103.649 23.224C104.393 23.656 105.197 23.872 106.061 23.872ZM123.335 11.452L123.659 14.944L123.515 14.44C123.995 13.36 124.763 12.496 125.819 11.848C126.899 11.2 128.159 10.876 129.599 10.876C131.015 10.876 132.179 11.296 133.091 12.136C134.003 12.952 134.471 14.032 134.495 15.376V26.5H130.859V16.636C130.835 15.868 130.607 15.244 130.175 14.764C129.743 14.26 129.071 13.996 128.159 13.972C126.887 13.972 125.819 14.5 124.955 15.556C124.115 16.612 123.695 17.968 123.695 19.624V26.5H120.059V11.452H123.335ZM140.972 33.736L150.872 11.452H154.22L144.5 33.736H140.972ZM144.716 26.608L137.48 11.452H141.548L147.56 24.772L144.716 26.608Z" fill="#1C2752" fill-opacity="0.4"/>
</svg>
